# Blender v2.80 (sub 75) OBJ File: ''
# www.blender.org
mtllib sword.mtl
o Cube.001_Cube.002
v 0.233252 -2.904129 0.233252
v 0.233252 -1.995463 0.233252
v 0.233252 -1.687872 0.233252
v 1.008382 1.370092 0.057925
v 0.848434 -1.687872 0.233252
v 0.848434 -1.995463 0.233252
v -0.233252 -2.904129 0.233252
v -0.233252 -1.995463 0.233252
v -0.233252 -1.687872 0.233252
v -1.008382 1.370092 0.057925
v 0.000000 -2.904129 0.233252
v 0.000000 -1.995463 0.233252
v -0.848434 -1.687872 0.233252
v 0.000000 -1.687872 0.233252
v -0.848434 -1.995463 0.233252
v 0.000000 2.537400 0.057925
v 0.233252 -2.904129 -0.233252
v 0.233252 -1.995463 -0.233252
v 0.233252 -1.687872 -0.233252
v 1.008382 1.370092 -0.057925
v 0.848434 -1.687872 0.000000
v 0.848434 -1.995463 0.000000
v 0.848434 -1.687872 -0.233252
v 0.848434 -1.995463 -0.233252
v 0.233252 -2.904129 0.000000
v 0.233252 -1.995463 0.000000
v 0.233252 -1.687872 0.000000
v 1.008382 1.370092 0.000000
v -0.233252 -2.904129 -0.233252
v -0.233252 -1.995463 -0.233252
v -0.233252 -1.687872 -0.233252
v -1.008382 1.370092 -0.057925
v -0.848434 -1.687872 0.000000
v -0.848434 -1.995463 0.000000
v 0.000000 -2.904129 -0.233252
v 0.000000 -1.995463 -0.233252
v -0.848434 -1.687872 -0.233252
v 0.000000 -1.687872 -0.233252
v -0.848434 -1.995463 -0.233252
v 0.000000 2.537400 -0.057925
v -0.233252 -2.904129 0.000000
v -0.233252 -1.995463 0.000000
v -0.233252 -1.687872 0.000000
v -1.008382 1.370092 0.000000
v 0.000000 2.537400 0.000000
v 0.000000 -2.904129 0.000000
vt 0.375000 0.625000
vt 0.625000 0.625000
vt 0.625000 0.750000
vt 0.375000 0.750000
vt 0.250000 0.625000
vt 0.250000 0.750000
vt 0.625000 0.875000
vt 0.625000 0.750000
vt 0.625000 0.875000
vt 0.625000 0.625000
vt 0.625000 0.750000
vt 0.625000 0.750000
vt 0.625000 0.875000
vt 0.625000 0.625000
vt 0.750000 0.625000
vt 0.750000 0.750000
vt 0.625000 0.750000
vt 0.375000 0.875000
vt 0.625000 0.625000
vt 0.625000 0.625000
vt 0.375000 0.625000
vt 0.375000 0.750000
vt 0.625000 0.750000
vt 0.625000 0.625000
vt 0.625000 0.750000
vt 0.625000 0.750000
vt 0.625000 0.625000
vt 0.625000 0.750000
vt 0.625000 0.625000
vt 0.625000 0.750000
vt 0.625000 0.625000
vt 0.625000 0.625000
vt 0.375000 0.750000
vt 0.625000 0.750000
vt 0.250000 0.750000
vt 0.625000 0.875000
vt 0.625000 0.875000
vt 0.625000 0.750000
vt 0.625000 0.750000
vt 0.625000 0.875000
vt 0.625000 0.750000
vt 0.750000 0.750000
vt 0.625000 0.750000
vt 0.375000 0.875000
vt 0.625000 0.750000
vt 0.375000 0.750000
vt 0.625000 0.750000
vt 0.625000 0.750000
vt 0.625000 0.750000
vt 0.625000 0.750000
vn 1.0000 0.0000 0.0000
vn 0.0000 -1.0000 0.0000
vn 0.0000 0.0000 1.0000
vn 0.0411 0.0437 0.9982
vn 0.7567 0.6537 0.0000
vn 0.9693 -0.2457 0.0000
vn 0.0000 1.0000 0.0000
vn -1.0000 0.0000 0.0000
vn -0.0411 0.0437 0.9982
vn -0.7567 0.6537 0.0000
vn -0.9693 -0.2457 0.0000
vn 0.0000 0.0000 -1.0000
vn 0.0411 0.0437 -0.9982
vn -0.0411 0.0437 -0.9982
usemtl None
s off
f 25/1/1 26/2/1 2/3/1 1/4/1
f 46/5/2 25/1/2 1/4/2 11/6/2
f 12/7/3 2/3/3 3/8/3 14/9/3
f 2/3/2 26/2/2 22/10/2 6/11/2
f 14/9/4 3/8/4 4/12/4 16/13/4
f 28/14/5 45/15/5 16/16/5 4/12/5
f 3/8/3 2/3/3 6/11/3 5/17/3
f 1/4/3 2/3/3 12/7/3 11/18/3
f 6/11/1 22/10/1 21/19/1 5/17/1
f 3/8/6 27/20/6 28/14/6 4/12/6
f 27/20/7 3/8/7 5/17/7 21/19/7
f 41/21/8 7/22/8 8/23/8 42/24/8
f 46/5/2 11/6/2 7/22/2 41/21/2
f 12/7/3 14/9/3 9/25/3 8/23/3
f 8/23/2 15/26/2 34/27/2 42/24/2
f 14/9/9 16/13/9 10/28/9 9/25/9
f 44/29/10 10/28/10 16/16/10 45/15/10
f 9/25/3 13/30/3 15/26/3 8/23/3
f 7/22/3 11/18/3 12/7/3 8/23/3
f 15/26/8 13/30/8 33/31/8 34/27/8
f 9/25/11 10/28/11 44/29/11 43/32/11
f 43/32/7 33/31/7 13/30/7 9/25/7
f 25/1/1 17/33/1 18/34/1 26/2/1
f 46/5/2 35/35/2 17/33/2 25/1/2
f 36/36/12 38/37/12 19/38/12 18/34/12
f 18/34/2 24/39/2 22/10/2 26/2/2
f 38/37/13 40/40/13 20/41/13 19/38/13
f 28/14/5 20/41/5 40/42/5 45/15/5
f 19/38/12 23/43/12 24/39/12 18/34/12
f 17/33/12 35/44/12 36/36/12 18/34/12
f 24/39/1 23/43/1 21/19/1 22/10/1
f 19/38/6 20/41/6 28/14/6 27/20/6
f 27/20/7 21/19/7 23/43/7 19/38/7
f 41/21/8 42/24/8 30/45/8 29/46/8
f 46/5/2 41/21/2 29/46/2 35/35/2
f 36/36/12 30/45/12 31/47/12 38/37/12
f 30/45/2 42/24/2 34/27/2 39/48/2
f 38/37/14 31/47/14 32/49/14 40/40/14
f 44/29/10 45/15/10 40/42/10 32/49/10
f 31/47/12 30/45/12 39/48/12 37/50/12
f 29/46/12 30/45/12 36/36/12 35/44/12
f 39/48/8 34/27/8 33/31/8 37/50/8
f 31/47/11 43/32/11 44/29/11 32/49/11
f 43/32/7 31/47/7 37/50/7 33/31/7
